<svg width="20" height="18" viewBox="0 0 20 18" fill="none" xmlns="http://www.w3.org/2000/svg">
<path d="M13.1654 15.4373C13.198 15.4428 13.2304 15.4454 13.2624 15.4454C13.5436 15.4454 13.7919 15.2423 13.8397 14.9557L14.4256 11.4401C14.4788 11.1209 14.2632 10.819 13.944 10.7658C13.6247 10.7124 13.3229 10.9282 13.2697 11.2474L12.6837 14.763C12.6305 15.0823 12.8461 15.3842 13.1654 15.4373Z" fill="white"/>
<path d="M6.19935 14.9557C6.24712 15.2423 6.49533 15.4454 6.77662 15.4454C6.80861 15.4454 6.84103 15.4428 6.87365 15.4373C7.19287 15.3841 7.40849 15.0823 7.35529 14.763L6.76935 11.2474C6.71615 10.9282 6.41431 10.7126 6.09505 10.7658C5.77583 10.819 5.56021 11.1209 5.61341 11.4401L6.19935 14.9557Z" fill="white"/>
<path d="M19.4141 6.07031H17.3519L12.8404 0.430853C12.6382 0.178235 12.2695 0.137181 12.0168 0.339368C11.7641 0.541517 11.7231 0.910228 11.9253 1.16292L15.8512 6.07031H4.14879L8.07473 1.16292C8.27687 0.910228 8.2359 0.541478 7.98324 0.339368C7.73051 0.137181 7.3618 0.178196 7.15969 0.430853L2.64809 6.07031H0.585938C0.262344 6.07031 0 6.33265 0 6.65624V8.99999C0 9.32359 0.262344 9.58593 0.585938 9.58593H1.31586L3.5382 17.3641C3.61004 17.6157 3.83996 17.7891 4.10156 17.7891H15.8984C16.16 17.7891 16.39 17.6157 16.4618 17.3641L18.6841 9.58593H19.4141C19.7377 9.58593 20 9.32359 20 8.99999V6.65624C20 6.33265 19.7377 6.07031 19.4141 6.07031ZM15.4565 16.6172H4.54352L2.53461 9.58593H17.4654L15.4565 16.6172ZM18.8281 8.41406C16.8209 8.41406 3.07344 8.41406 1.17188 8.41406V7.24218H18.8281V8.41406Z" fill="white"/>
<path d="M10 15.4453C10.3236 15.4453 10.5859 15.183 10.5859 14.8594V11.3437C10.5859 11.0201 10.3236 10.7578 10 10.7578C9.67641 10.7578 9.41406 11.0201 9.41406 11.3437V14.8594C9.41406 15.183 9.67641 15.4453 10 15.4453Z" fill="white"/>
</svg>
