<svg width="10" height="10" viewBox="0 0 10 10" fill="none" xmlns="http://www.w3.org/2000/svg">
<path d="M4.03994 4.43256C4.06744 4.27006 4.11744 4.12506 4.18994 3.99756C4.26244 3.87006 4.36244 3.76756 4.48494 3.69006C4.60244 3.61756 4.74994 3.57756 4.93244 3.57506C5.05244 3.57756 5.16244 3.59756 5.25744 3.64006C5.35994 3.68506 5.44494 3.74506 5.51744 3.82006C5.58994 3.89506 5.64494 3.98506 5.68494 4.08506C5.72494 4.18506 5.74744 4.29256 5.75244 4.40506H6.64745C6.63995 4.17006 6.59245 3.95506 6.50995 3.76006C6.42745 3.56506 6.30745 3.39756 6.15745 3.25506C6.00745 3.11256 5.82744 3.00506 5.61744 2.92756C5.40744 2.85006 5.17494 2.81006 4.91994 2.81006C4.59494 2.81006 4.31244 2.86506 4.07244 2.97756C3.83244 3.09006 3.63244 3.24256 3.47244 3.43756C3.31244 3.63256 3.19244 3.85756 3.11494 4.11506C3.03744 4.37256 2.99994 4.64506 2.99994 4.93256V5.07006C2.99994 5.36005 3.03994 5.63255 3.11744 5.89005C3.19494 6.14755 3.31494 6.37255 3.47494 6.56505C3.63494 6.75755 3.83494 6.91005 4.07744 7.02255C4.31994 7.13505 4.60244 7.19005 4.92744 7.19005C5.16244 7.19005 5.38244 7.15255 5.58744 7.07505C5.79244 6.99755 5.97244 6.89255 6.12744 6.75755C6.28245 6.62255 6.40745 6.46755 6.49745 6.28755C6.58745 6.10755 6.63995 5.91755 6.64745 5.71255H5.75244C5.74744 5.81755 5.72244 5.91255 5.67744 6.00255C5.63244 6.09255 5.57244 6.16755 5.49744 6.23005C5.42244 6.29255 5.33494 6.34255 5.23494 6.37755C5.13994 6.41005 5.03994 6.42755 4.93244 6.42755C4.75244 6.42255 4.60494 6.38505 4.48494 6.31005C4.35994 6.23005 4.25994 6.12755 4.18744 6.00005C4.11494 5.87255 4.06494 5.72755 4.03744 5.56255C4.00994 5.39755 3.99994 5.23756 3.99994 5.07006V4.93256C3.99994 4.76256 4.01244 4.59506 4.03994 4.43256Z" fill="white"/>
<path d="M5 0C2.2375 0 0 2.2375 0 5C0 7.7625 2.2375 10 5 10C7.7625 10 10 7.7625 10 5C10 2.2375 7.7625 0 5 0ZM5 9C2.795 9 1 7.205 1 5C1 2.795 2.795 1 5 1C7.205 1 9 2.795 9 5C9 7.205 7.205 9 5 9Z" fill="white"/>
</svg>
