<svg width="30" height="30" viewBox="0 0 30 30" fill="none" xmlns="http://www.w3.org/2000/svg">
<path fill-rule="evenodd" clip-rule="evenodd" d="M15 30C23.2843 30 30 23.2843 30 15C30 6.71573 23.2843 0 15 0C10.7909 0 6.98675 1.73364 4.2626 4.52582L6.125 13.6133L8.83203 4.20703H11.6895L14.3828 13.627L16.3242 4.20703H20.1387L16.3652 19H13.0566L10.2539 9.68945L7.45117 19H4.15625L1.4778 8.49971C0.530716 10.4663 0 12.6712 0 15C0 23.2843 6.71573 30 15 30ZM21.2461 15.5273C20.8268 15.9193 20.6172 16.4297 20.6172 17.0586C20.6172 17.6784 20.8268 18.1842 21.2461 18.5762C21.6654 18.959 22.1986 19.1504 22.8457 19.1504C23.502 19.1504 24.0397 18.959 24.459 18.5762C24.8783 18.1842 25.0879 17.6784 25.0879 17.0586C25.0879 16.4297 24.8737 15.9193 24.4453 15.5273C24.026 15.1354 23.4928 14.9395 22.8457 14.9395C22.2077 14.9395 21.6745 15.1354 21.2461 15.5273Z" fill="url(#paint0_linear)" fill-opacity="0.62"/>
<defs>
<linearGradient id="paint0_linear" x1="27" y1="5.45941" x2="5.64608" y2="25.4694" gradientUnits="userSpaceOnUse">
<stop stop-color="white" stop-opacity="0.9925"/>
<stop offset="1" stop-color="#000AFF" stop-opacity="0.88"/>
</linearGradient>
</defs>
</svg>
